<svg width="43" height="43" viewBox="0 0 43 43" fill="none" xmlns="http://www.w3.org/2000/svg">
<rect width="43" height="43" rx="8" fill="#E20512"/>
<path d="M8.98 26V15.92H13.145C13.243 15.92 13.369 15.9247 13.523 15.934C13.677 15.9387 13.8193 15.9527 13.95 15.976C14.5333 16.0647 15.014 16.2583 15.392 16.557C15.7747 16.8557 16.057 17.2337 16.239 17.691C16.4257 18.1437 16.519 18.6477 16.519 19.203C16.519 19.7537 16.4257 20.2577 16.239 20.715C16.0523 21.1677 15.7677 21.5433 15.385 21.842C15.007 22.1407 14.5287 22.3343 13.95 22.423C13.8193 22.4417 13.6747 22.4557 13.516 22.465C13.362 22.4743 13.2383 22.479 13.145 22.479H10.667V26H8.98ZM10.667 20.904H13.075C13.1683 20.904 13.2733 20.8993 13.39 20.89C13.5067 20.8807 13.614 20.862 13.712 20.834C13.992 20.764 14.2113 20.6403 14.37 20.463C14.5333 20.2857 14.6477 20.085 14.713 19.861C14.783 19.637 14.818 19.4177 14.818 19.203C14.818 18.9883 14.783 18.769 14.713 18.545C14.6477 18.3163 14.5333 18.1133 14.37 17.936C14.2113 17.7587 13.992 17.635 13.712 17.565C13.614 17.537 13.5067 17.5207 13.39 17.516C13.2733 17.5067 13.1683 17.502 13.075 17.502H10.667V20.904ZM17.9214 26V15.92H21.1344C21.2184 15.92 21.3841 15.9223 21.6314 15.927C21.8834 15.9317 22.1261 15.948 22.3594 15.976C23.1574 16.0787 23.8317 16.3633 24.3824 16.83C24.9377 17.292 25.3577 17.8823 25.6424 18.601C25.9271 19.3197 26.0694 20.106 26.0694 20.96C26.0694 21.814 25.9271 22.6003 25.6424 23.319C25.3577 24.0377 24.9377 24.6303 24.3824 25.097C23.8317 25.559 23.1574 25.8413 22.3594 25.944C22.1307 25.972 21.8904 25.9883 21.6384 25.993C21.3864 25.9977 21.2184 26 21.1344 26H17.9214ZM19.6364 24.411H21.1344C21.2744 24.411 21.4517 24.4063 21.6664 24.397C21.8857 24.3877 22.0794 24.3667 22.2474 24.334C22.7234 24.2453 23.1107 24.033 23.4094 23.697C23.7081 23.361 23.9274 22.9527 24.0674 22.472C24.2121 21.9913 24.2844 21.4873 24.2844 20.96C24.2844 20.414 24.2121 19.9007 24.0674 19.42C23.9227 18.9393 23.6987 18.5357 23.3954 18.209C23.0967 17.8823 22.7141 17.6747 22.2474 17.586C22.0794 17.5487 21.8857 17.5277 21.6664 17.523C21.4517 17.5137 21.2744 17.509 21.1344 17.509H19.6364V24.411ZM27.7241 26V15.92H33.7931V17.607H29.4111V20.12H32.9531V21.8H29.4111V26H27.7241Z" fill="white"/>
</svg>
