<svg width="91" height="28" viewBox="0 0 91 28" fill="none" xmlns="http://www.w3.org/2000/svg">
<g id="Airbnb Logo" clip-path="url(#clip0_44_253)">
<path id="Vector" d="M26.2997 19.8442C26.1585 19.503 26.0262 19.1442 25.885 18.838L25.2321 17.3767L25.2056 17.3505C23.2644 13.1505 21.1909 8.88047 18.9938 4.68047L18.9056 4.50547C18.685 4.09422 18.4644 3.63922 18.235 3.21922C17.9527 2.72047 17.6791 2.18672 17.2291 1.67922C16.7905 1.14821 16.2385 0.720384 15.6128 0.426617C14.9872 0.13285 14.3037 -0.0195312 13.6115 -0.0195312C12.9193 -0.0195312 12.2357 0.13285 11.6101 0.426617C10.9845 0.720384 10.4325 1.14821 9.99384 1.67922C9.57913 2.18672 9.27031 2.72047 8.98795 3.21922C8.76737 3.67422 8.54678 4.12047 8.31737 4.53172L8.22913 4.70672C6.06737 8.90672 3.95854 13.1767 2.01737 17.3767L1.96443 17.4292C1.77031 17.8842 1.5409 18.3567 1.32031 18.8642C1.17913 19.1705 1.03795 19.503 0.896778 19.8705C0.515631 20.8328 0.393918 21.877 0.543636 22.9001C0.693354 23.9233 1.10934 24.8901 1.75058 25.7053C2.39183 26.5205 3.23621 27.1559 4.20051 27.549C5.1648 27.942 6.21573 28.0791 7.24972 27.9467C8.24102 27.8173 9.19555 27.4899 10.0556 26.9842C11.2027 26.3455 12.3056 25.418 13.5409 24.0792C14.7762 25.418 15.9056 26.3455 17.0262 26.993C18.1038 27.6202 19.3242 27.9664 20.5732 27.9992C22.0197 28.0052 23.4196 27.492 24.5143 26.5543C25.609 25.6167 26.3246 24.318 26.5291 22.898C26.7655 21.8775 26.6855 20.8101 26.2997 19.8355V19.8442ZM13.6291 21.2967C12.1115 19.3717 11.1232 17.6042 10.788 16.0905C10.649 15.5295 10.6191 14.9475 10.6997 14.3755C10.7615 13.9292 10.9291 13.5355 11.1585 13.203C11.688 12.4417 12.6144 11.9692 13.6291 11.9692C14.111 11.9546 14.589 12.0589 15.0202 12.2727C15.4514 12.4865 15.8224 12.8032 16.0997 13.1942C16.3291 13.5442 16.4968 13.9292 16.5497 14.3755C16.638 14.883 16.6027 15.4692 16.4615 16.0905C16.1262 17.578 15.138 19.363 13.6291 21.2967ZM24.8703 22.5917C24.7701 23.3127 24.4811 23.995 24.0321 24.5707C23.5831 25.1464 22.9899 25.5954 22.3115 25.873C21.6409 26.153 20.8997 26.2317 20.1762 26.153C19.4703 26.0655 18.7644 25.838 18.0409 25.418C16.8396 24.6817 15.7594 23.7668 14.838 22.7055C16.6909 20.4305 17.8115 18.3567 18.235 16.5105C18.438 15.6355 18.4644 14.848 18.3762 14.1217C18.266 13.4333 18.0072 12.7767 17.6174 12.1967C17.1723 11.5678 16.5783 11.057 15.8874 10.7091C15.1966 10.3613 14.4302 10.187 13.6556 10.2017C12.0232 10.2017 10.5674 10.9542 9.68501 12.188C9.28781 12.7665 9.03111 13.4284 8.93501 14.1217C8.82031 14.8567 8.84678 15.6705 9.07619 16.5105C9.49972 18.3567 10.6468 20.4567 12.4732 22.723C11.5675 23.8046 10.4847 24.7275 9.27031 25.453C8.53795 25.873 7.8409 26.0917 7.13501 26.1792C6.03726 26.3187 4.92838 26.0228 4.04939 25.3559C3.1704 24.6891 2.59235 23.7051 2.4409 22.618C2.35266 21.918 2.41443 21.218 2.69678 20.4305C2.78501 20.1505 2.91737 19.8705 3.05854 19.538C3.25266 19.083 3.48207 18.6105 3.70266 18.138L3.73795 18.0767C5.64384 13.903 7.72619 9.64172 9.88795 5.46797L9.97619 5.29297C10.1968 4.87297 10.4174 4.42672 10.6468 4.00672C10.8762 3.56047 11.1232 3.13172 11.4409 2.78172C11.7158 2.45624 12.0594 2.19448 12.4474 2.01488C12.8354 1.83528 13.2583 1.74221 13.6865 1.74221C14.1146 1.74221 14.5376 1.83528 14.9256 2.01488C15.3136 2.19448 15.6571 2.45624 15.9321 2.78172C16.2409 3.13172 16.4968 3.56047 16.7262 4.00672C16.9468 4.42672 17.1674 4.88172 17.3968 5.29297L17.485 5.46797C19.638 9.64172 21.7203 13.903 23.6615 18.0767L23.688 18.103C23.9174 18.558 24.1115 19.0655 24.3321 19.503C24.4732 19.8442 24.6144 20.1155 24.7027 20.4042C24.8703 21.1917 24.9585 21.8917 24.8703 22.5917ZM37.1527 21.1042C36.4878 21.1139 35.8292 20.9749 35.2259 20.6977C34.6225 20.4205 34.0898 20.0122 33.6674 19.503C32.718 18.4179 32.2142 17.0189 32.2556 15.583C32.2411 14.1158 32.7612 12.6927 33.7203 11.5755C34.164 11.0598 34.7162 10.6468 35.3382 10.3656C35.9602 10.0844 36.6368 9.94184 37.3203 9.94797C37.9635 9.93051 38.6006 10.0755 39.1717 10.3694C39.7428 10.6633 40.2291 11.0964 40.585 11.628L40.6732 10.2542H43.2497V20.8242H40.6644L40.5762 19.2842C40.2093 19.8518 39.7021 20.3169 39.103 20.6355C38.5038 20.954 37.8324 21.1154 37.1527 21.1042ZM37.8232 18.5842C38.335 18.5842 38.785 18.4442 39.2085 18.1905C39.5968 17.9105 39.9144 17.543 40.1615 17.0967C40.3821 16.6505 40.4968 16.1167 40.4968 15.5217C40.5312 15.0049 40.4297 14.4882 40.2024 14.0219C39.975 13.5556 39.6295 13.1559 39.1997 12.8617C38.7867 12.6065 38.3099 12.4713 37.8232 12.4713C37.3366 12.4713 36.8598 12.6065 36.4468 12.8617C36.0585 13.1417 35.7409 13.5092 35.4938 13.9555C35.2605 14.4476 35.1457 14.9868 35.1585 15.5305C35.1241 16.0472 35.2256 16.564 35.4529 17.0303C35.6803 17.4965 36.0258 17.8963 36.4556 18.1905C36.8703 18.4442 37.3203 18.5842 37.8232 18.5842ZM47.6615 7.40172C47.6615 7.70797 47.6085 7.98797 47.4674 8.21547C47.3262 8.43422 47.1321 8.63547 46.8762 8.77547C46.6203 8.91547 46.3468 8.96797 46.0644 8.96797C45.7821 8.96797 45.4997 8.91547 45.2438 8.77547C45.0018 8.64187 44.7983 8.44909 44.6527 8.21547C44.516 7.96621 44.449 7.68527 44.4585 7.40172C44.4585 7.08672 44.5203 6.80672 44.6527 6.58797C44.7938 6.32547 44.9968 6.16797 45.2438 6.02797C45.4997 5.88797 45.7732 5.82672 46.0644 5.82672C46.3453 5.8203 46.623 5.88627 46.8705 6.01816C47.1179 6.15006 47.3266 6.34338 47.4762 6.57922C47.6046 6.83432 47.6682 7.11668 47.6615 7.40172ZM44.6615 20.7892V10.2367H47.4674V20.8067H44.6527L44.6615 20.7892ZM54.9674 13.0017V13.0367C54.835 12.9755 54.6585 12.9492 54.5262 12.923C54.3497 12.888 54.2085 12.888 54.0409 12.888C53.2556 12.888 52.6644 13.1155 52.2762 13.588C51.8527 14.0692 51.6585 14.743 51.6585 15.6092V20.798H48.8438V10.228H51.4291L51.5174 11.8292C51.7997 11.2692 52.135 10.8492 52.6115 10.5342C53.0854 10.2282 53.6434 10.0753 54.2085 10.0967C54.4115 10.0967 54.6056 10.1142 54.7732 10.1492C54.8615 10.1755 54.9144 10.1755 54.9674 10.2017V13.0017ZM56.0968 20.7892V5.89672H58.9027V11.5842C59.2997 11.0767 59.7497 10.683 60.3144 10.3767C61.2084 9.94205 62.224 9.81875 63.1973 10.0267C64.1707 10.2347 65.045 10.7618 65.6791 11.523C66.6306 12.6102 67.1346 14.0128 67.0909 15.4517C67.1054 16.9189 66.5853 18.342 65.6262 19.4592C65.1825 19.9749 64.6303 20.3879 64.0083 20.6691C63.3863 20.9503 62.7097 21.0928 62.0262 21.0867C61.383 21.1042 60.7459 20.9591 60.1748 20.6653C59.6037 20.3714 59.1174 19.9383 58.7615 19.4067L58.6732 20.7805L56.0968 20.8067V20.7892ZM61.5233 18.5842C62.0262 18.5842 62.4762 18.4442 62.8997 18.1905C63.288 17.9105 63.6056 17.543 63.8527 17.0967C64.0821 16.6505 64.188 16.1167 64.188 15.5217C64.188 14.9355 64.0821 14.4017 63.8527 13.9555C63.6209 13.5252 63.2954 13.1515 62.8997 12.8617C62.4867 12.6065 62.0099 12.4713 61.5233 12.4713C61.0366 12.4713 60.5598 12.6065 60.1468 12.8617C59.7497 13.1417 59.4409 13.5092 59.185 13.9555C58.9517 14.4476 58.8369 14.9868 58.8497 15.5305C58.8153 16.0472 58.9168 16.564 59.1441 17.0303C59.3715 17.4965 59.7169 17.8963 60.1468 18.1905C60.5615 18.4442 61.0115 18.5842 61.5233 18.5842ZM68.1497 20.798V10.228H70.735L70.8232 11.6017C71.1481 11.0751 71.609 10.6442 72.1581 10.3534C72.7073 10.0627 73.3248 9.9227 73.9468 9.94797C74.658 9.93579 75.3571 10.1318 75.9566 10.5116C76.5561 10.8913 77.0294 11.4379 77.3174 12.083C77.6262 12.748 77.7938 13.5705 77.7938 14.4892V20.8242H74.9791V14.8567C74.9791 14.1217 74.8115 13.5442 74.4762 13.1155C74.1409 12.6955 73.6821 12.468 73.0997 12.468C72.6762 12.468 72.3056 12.5555 71.9791 12.748C71.6703 12.9492 71.4144 13.203 71.2203 13.5617C71.024 13.9244 70.9267 14.3316 70.938 14.743V20.798H68.1497ZM79.1968 20.798V5.88797H82.0115V11.5755C82.3927 11.0651 82.8887 10.65 83.46 10.3629C84.0313 10.0758 84.6622 9.92477 85.3027 9.92172C85.9675 9.91207 86.6261 10.051 87.2294 10.3282C87.8328 10.6054 88.3655 11.0138 88.7879 11.523C89.7326 12.6102 90.233 14.0085 90.1909 15.443C90.2062 16.9103 89.686 18.3336 88.7262 19.4505C88.2825 19.9662 87.7303 20.3792 87.1083 20.6604C86.4863 20.9415 85.8097 21.0841 85.1262 21.078C84.483 21.0954 83.8459 20.9504 83.2748 20.6565C82.7037 20.3626 82.2174 19.9295 81.8615 19.398L81.7821 20.7717L79.1968 20.798ZM84.6497 18.5842C85.1615 18.5842 85.6115 18.4442 86.0262 18.1905C86.4232 17.9105 86.7321 17.543 86.988 17.0967C87.2085 16.6505 87.3232 16.1167 87.3232 15.5217C87.3576 15.0049 87.2562 14.4882 87.0289 14.0219C86.8015 13.5556 86.456 13.1559 86.0262 12.8617C85.6132 12.6065 85.1363 12.4713 84.6497 12.4713C84.1631 12.4713 83.6862 12.6065 83.2732 12.8617C82.885 13.1417 82.5674 13.5092 82.3203 13.9555C82.074 14.4432 81.9585 14.9856 81.985 15.5305C81.9506 16.0472 82.0521 16.564 82.2794 17.0303C82.5068 17.4965 82.8522 17.8963 83.2821 18.1905C83.6968 18.4442 84.1203 18.5842 84.6497 18.5842Z" fill="#FF385C"/>
</g>
<defs>
<clipPath id="clip0_44_253">
<rect width="90" height="28" fill="white" transform="translate(0.5)"/>
</clipPath>
</defs>
</svg>
