<svg width="24" height="24" viewBox="0 0 24 24" fill="none" xmlns="http://www.w3.org/2000/svg">
<g id="local_fire_department_black_24dp 1" clip-path="url(#clip0_397_963)">
<g id="Group">
<g id="Group_2">
<g id="Group_3">
<path id="Vector" d="M12 12.9004L9.87 14.9904C9.31 15.5504 9 16.2804 9 17.0604C9 18.6804 10.35 20.0004 12 20.0004C13.65 20.0004 15 18.6804 15 17.0604C15 16.2804 14.69 15.5404 14.13 14.9904L12 12.9004Z" fill="#FE6B44"/>
</g>
<g id="Group_4">
<path id="Vector_2" d="M16 6L15.56 6.55C14.38 8.02 12 7.19 12 5.3V2C12 2 4 6 4 13C4 15.92 5.56 18.47 7.89 19.86C7.33 19.07 7 18.1 7 17.06C7 15.74 7.52 14.5 8.47 13.56L12 10.1L15.53 13.57C16.48 14.5 17 15.74 17 17.07C17 18.09 16.69 19.03 16.15 19.82C18.04 18.67 19.44 16.76 19.86 14.52C20.52 10.97 18.79 7.62 16 6Z" fill="#FE6B44"/>
</g>
</g>
</g>
</g>
<defs>
<clipPath id="clip0_397_963">
<rect width="24" height="24" fill="white"/>
</clipPath>
</defs>
</svg>
