<svg width="128" height="13" viewBox="0 0 128 13" fill="none" xmlns="http://www.w3.org/2000/svg">
<g clip-path="url(#clip0_587_3318)">
<path fill-rule="evenodd" clip-rule="evenodd" d="M78.5986 1.55051H85.3209L86.651 0H75.9546C75.7 -4.62189e-08 75.4479 0.0512235 75.2127 0.150744C74.9775 0.250264 74.7638 0.396131 74.5838 0.580009C74.4038 0.763887 74.2611 0.982174 74.1638 1.2224C74.0665 1.46262 74.0165 1.72007 74.0166 1.98003C74.0166 2.50485 74.2208 3.00818 74.5842 3.37929C74.9477 3.7504 75.4406 3.95888 75.9546 3.95888H82.069C82.2119 3.95919 82.3489 4.01739 82.4498 4.1207C82.5508 4.22401 82.6075 4.36399 82.6075 4.50994C82.6075 4.65578 82.5507 4.79564 82.4498 4.89876C82.3488 5.00188 82.2118 5.05982 82.069 5.05982H75.3467L74.0166 6.60797H84.713C84.9676 6.60797 85.2197 6.55675 85.4549 6.45723C85.6901 6.35771 85.9038 6.21184 86.0838 6.02796C86.2638 5.84408 86.4065 5.6258 86.5038 5.38557C86.6011 5.14535 86.6512 4.8879 86.651 4.62794C86.6512 4.36797 86.6011 4.11052 86.5038 3.8703C86.4065 3.63008 86.2638 3.4118 86.0838 3.22792C85.9038 3.04404 85.6901 2.89817 85.4549 2.79865C85.2197 2.69913 84.9676 2.64791 84.713 2.64791H78.5986C78.4558 2.64791 78.3188 2.58997 78.2179 2.48685C78.1169 2.38373 78.0601 2.24387 78.0601 2.09803C78.061 1.9527 78.1181 1.81362 78.219 1.71108C78.3199 1.60853 78.4563 1.55082 78.5986 1.55051Z" fill="#004C98"/>
<path fill-rule="evenodd" clip-rule="evenodd" d="M44.9675 2.54757C44.9693 2.21436 44.9066 1.88406 44.783 1.57569C44.6593 1.26733 44.4772 0.986964 44.247 0.750742C44.0168 0.51452 43.7432 0.3271 43.4418 0.199263C43.1405 0.0714273 42.8173 0.00569888 42.491 0.00585967H31.8015V6.60793H35.8393V5.06096H39.7533L40.924 6.60793H44.9687L43.5819 4.7872C43.9946 4.58319 44.3431 4.26528 44.588 3.86947C44.8329 3.47365 44.9643 3.01574 44.9675 2.54757ZM39.9637 3.51044H35.8393V1.55047H39.9637C40.2184 1.55047 40.4626 1.65378 40.6427 1.83768C40.8228 2.02157 40.924 2.27098 40.924 2.53105C40.9252 2.66012 40.9012 2.78814 40.8534 2.90761C40.8055 3.02708 40.7348 3.13561 40.6454 3.22682C40.556 3.31804 40.4496 3.3901 40.3325 3.43881C40.2155 3.48751 40.0901 3.51186 39.9637 3.51044Z" fill="#004C98"/>
<path d="M20.4706 11.1205C20.4652 11.3 20.413 11.4748 20.3192 11.6267C20.2241 11.7754 20.0894 11.8933 19.9309 11.9665C19.7516 12.0487 19.5565 12.089 19.36 12.0845C19.2042 12.0919 19.0487 12.0639 18.9046 12.0027C18.7606 11.9415 18.6316 11.8486 18.5268 11.7305C18.3246 11.4945 18.2229 11.1641 18.2229 10.7358V10.6048C18.2171 10.3613 18.264 10.1196 18.3604 9.89682C18.4432 9.70279 18.5808 9.53843 18.7556 9.42482C18.9353 9.31269 19.1426 9.25536 19.3531 9.25962C19.6378 9.24591 19.9175 9.33956 20.1389 9.52276C20.2393 9.61476 20.3207 9.72616 20.3787 9.85052C20.4366 9.97488 20.4698 10.1097 20.4764 10.2473H19.8304C19.8337 10.1829 19.8244 10.1184 19.8032 10.0576C19.782 9.99689 19.7492 9.94102 19.7067 9.89328C19.6066 9.81249 19.4803 9.7733 19.3531 9.78354C19.2832 9.77863 19.2134 9.7933 19.151 9.82594C19.0887 9.85859 19.0363 9.90798 18.9995 9.9688C18.9121 10.1521 18.8723 10.3553 18.8839 10.5588V10.7523C18.8691 10.9671 18.9064 11.1823 18.9925 11.3789C19.031 11.4425 19.0861 11.4939 19.1517 11.5273C19.2172 11.5607 19.2906 11.5746 19.3635 11.5677C19.4881 11.5775 19.6119 11.5392 19.7102 11.4603C19.7526 11.4151 19.7856 11.3616 19.807 11.3029C19.8285 11.2443 19.838 11.1818 19.835 11.1193L20.4706 11.1205Z" fill="#004C98"/>
<path d="M23.9563 10.7383C23.9592 10.9828 23.9079 11.2249 23.8061 11.4463C23.7162 11.6414 23.5724 11.8055 23.3924 11.9183C23.2065 12.0258 22.9965 12.0824 22.7828 12.0824C22.5691 12.0824 22.3591 12.0258 22.1732 11.9183C21.9941 11.8092 21.85 11.6493 21.7583 11.4581C21.66 11.2456 21.6094 11.0134 21.6104 10.7784V10.6203C21.6056 10.3762 21.655 10.1341 21.7549 9.91227C21.8445 9.71656 21.9888 9.55232 22.1698 9.44028C22.3558 9.33128 22.5666 9.27393 22.7811 9.27393C22.9956 9.27393 23.2063 9.33128 23.3924 9.44028C23.5732 9.55285 23.7178 9.71691 23.8084 9.91227C23.9108 10.1309 23.9622 10.3708 23.9587 10.6132L23.9563 10.7383ZM23.2988 10.6203C23.3118 10.4047 23.2654 10.1896 23.1647 9.99959C23.1246 9.93377 23.068 9.88005 23.0008 9.84396C22.9335 9.80787 22.8581 9.79073 22.7822 9.79428C22.4575 9.79428 22.2865 10.0421 22.268 10.54V10.7406C22.2559 10.9554 22.301 11.1695 22.3986 11.3601C22.4381 11.429 22.4952 11.4855 22.5638 11.5238C22.6324 11.562 22.7099 11.5805 22.788 11.5772C22.8639 11.5793 22.939 11.5606 23.0055 11.5231C23.0719 11.4855 23.1273 11.4305 23.1659 11.3637C23.2657 11.1767 23.3125 10.965 23.3011 10.7524L23.2988 10.6203Z" fill="#004C98"/>
<path d="M26.0461 9.30794L26.6448 11.2101L27.2422 9.30322H28.0939V12.0444H27.4456V11.4083L27.508 10.0985L26.8585 12.0491H26.431L25.7803 10.0962L25.8428 11.4083V12.0491H25.1921V9.30794H26.0461Z" fill="#004C98"/>
<path d="M30.059 11.1195V12.0494H29.4119V9.30825H30.4831C30.6713 9.3054 30.8577 9.34573 31.0286 9.42625C31.1795 9.49715 31.3069 9.61159 31.3949 9.75546C31.4826 9.9012 31.5279 10.0694 31.5255 10.2404C31.5299 10.3622 31.5068 10.4834 31.4579 10.5945C31.409 10.7056 31.3356 10.8037 31.2435 10.8812C31.022 11.0513 30.7482 11.135 30.4716 11.1172L30.059 11.1195ZM30.059 10.6086H30.4831C30.5872 10.6161 30.6901 10.5818 30.7697 10.513C30.8041 10.4775 30.8307 10.435 30.8479 10.3882C30.865 10.3414 30.8722 10.2915 30.8691 10.2416C30.8742 10.1299 30.8379 10.0204 30.7674 9.93482C30.7324 9.89598 30.6896 9.86532 30.642 9.84495C30.5943 9.82458 30.5429 9.81499 30.4912 9.81682H30.059V10.6086Z" fill="#004C98"/>
<path d="M33.9751 11.5371H33.0853L32.9351 12.0492H32.2417L33.2263 9.30811H33.8341L34.8268 12.0492H34.1334L33.9751 11.5371ZM33.2436 11.0274H33.8214L33.5325 10.0763L33.2436 11.0274Z" fill="#004C98"/>
<path d="M38.1674 12.0492H37.5238L36.5727 10.343V12.0492H35.9255V9.30811H36.5727L37.5226 11.0132V9.30811H38.1674V12.0492Z" fill="#004C98"/>
<path d="M40.1728 12.0492H39.5222V9.30811H40.1682L40.1728 12.0492Z" fill="#004C98"/>
<path d="M43.0873 11.5371H42.2009L42.0449 12.0492H41.3516L42.3362 9.30811H42.9452L43.9367 12.0492H43.2433L43.0873 11.5371ZM42.3546 11.0274H42.9325L42.6424 10.0763L42.3546 11.0274Z" fill="#004C98"/>
<path d="M47.5764 12.0492H46.9304V9.30811H47.5764V12.0492Z" fill="#004C98"/>
<path d="M51.1738 12.0492H50.5302L49.5756 10.343V12.0492H48.9285V9.30811H49.5756L50.5255 11.0132V9.30811H51.1704L51.1738 12.0492Z" fill="#004C98"/>
<path d="M54.5453 9.81786H53.7364V12.0492H53.0892V9.81786H52.2976V9.30811H54.5453V9.81786Z" fill="#004C98"/>
<path d="M57.3885 10.8858H56.3715V11.5407H57.5734V12.0492H55.7244V9.30811H57.5734V9.81786H56.3715V10.3961H57.3885V10.8858Z" fill="#004C98"/>
<path d="M59.7455 11.079H59.3989V12.0489H58.7517V9.30781H59.8079C60.0735 9.2916 60.3367 9.36772 60.5545 9.52374C60.6439 9.59629 60.715 9.68963 60.7618 9.79597C60.8087 9.90231 60.8299 10.0186 60.8237 10.135C60.8293 10.3003 60.7892 10.4638 60.7082 10.607C60.6215 10.7416 60.4982 10.8474 60.3534 10.9114L60.9139 12.0183V12.0466H60.2205L59.7455 11.079ZM59.3989 10.5704H59.8079C59.8584 10.5744 59.9091 10.5676 59.9568 10.5506C60.0046 10.5335 60.0483 10.5065 60.0853 10.4713C60.118 10.4338 60.1431 10.3902 60.1591 10.3428C60.1752 10.2954 60.1819 10.2452 60.1789 10.1952C60.1846 10.0934 60.151 9.99342 60.0853 9.91668C60.0484 9.8813 60.0047 9.85411 59.9569 9.83685C59.9092 9.81959 59.8585 9.81262 59.8079 9.81638H59.3989V10.5704Z" fill="#004C98"/>
<path d="M64.3542 12.0492H63.7105L62.7595 10.343V12.0492H62.1123V9.30811H62.7595L63.7082 11.0132V9.30811H64.3542V12.0492Z" fill="#004C98"/>
<path d="M67.2265 11.5371H66.3402L66.1853 12.0492H65.4919L66.4777 9.30811H67.0855L68.0771 12.0492H67.3837L67.2265 11.5371ZM66.495 11.0274H67.0728L66.7839 10.0763L66.495 11.0274Z" fill="#004C98"/>
<path d="M71.0707 9.81786H70.2617V12.0492H69.6146V9.81786H68.823V9.30811H71.0707V9.81786ZM69.885 13.0038L69.5926 12.8528L69.64 12.7667C69.7033 12.6408 69.735 12.501 69.7325 12.3596V12.192H70.1462V12.3313C70.1426 12.4528 70.1176 12.5728 70.0722 12.6853C70.0264 12.8004 69.962 12.907 69.8816 13.0003L69.885 13.0038Z" fill="#004C98"/>
<path d="M72.9358 12.0492H72.2898V9.30811H72.9358V12.0492Z" fill="#004C98"/>
<path d="M76.5652 10.7382C76.5696 10.9824 76.5198 11.2245 76.4196 11.4462C76.3289 11.6412 76.1848 11.8052 76.0047 11.9182C75.8201 12.0307 75.6084 12.0883 75.3934 12.0846C75.1801 12.0884 74.9699 12.0325 74.7856 11.923C74.6068 11.8139 74.463 11.654 74.3718 11.4628C74.2691 11.249 74.2157 11.0141 74.2158 10.776V10.6202C74.2116 10.3762 74.2609 10.1343 74.3603 9.91225C74.4502 9.71677 74.5945 9.55263 74.7752 9.44026C74.9614 9.33127 75.1724 9.27393 75.3871 9.27393C75.6017 9.27393 75.8127 9.33127 75.999 9.44026C76.1792 9.55351 76.3236 9.71738 76.415 9.91225C76.5168 10.1311 76.5682 10.3709 76.5652 10.6132V10.7382ZM75.9065 10.6202C75.9195 10.4046 75.8731 10.1896 75.7725 9.99957C75.7324 9.93366 75.6758 9.87987 75.6086 9.84377C75.5413 9.80768 75.4658 9.79058 75.3899 9.79425C75.0664 9.79425 74.8942 10.0421 74.8757 10.54V10.7382C74.8631 10.953 74.9082 11.1673 75.0063 11.3577C75.0472 11.4238 75.1039 11.4782 75.171 11.5159C75.2381 11.5536 75.3134 11.5733 75.3899 11.5733C75.4665 11.5733 75.5418 11.5536 75.6089 11.5159C75.676 11.4782 75.7326 11.4238 75.7736 11.3577C75.8725 11.1705 75.9188 10.959 75.9077 10.7465L75.9065 10.6202Z" fill="#004C98"/>
<path d="M80.0476 12.0492H79.4039L78.4528 10.343V12.0492H77.8057V9.30811H78.4528L79.4016 11.0132V9.30811H80.0476V12.0492Z" fill="#004C98"/>
<path d="M82.9199 11.5371H82.0335L81.8787 12.0492H81.1853L82.1699 9.30811H82.7777L83.7704 12.0492H83.0771L82.9199 11.5371ZM82.1884 11.0274H82.7662L82.4773 10.0763L82.1884 11.0274Z" fill="#004C98"/>
<path d="M85.5219 11.5407H86.6486V12.0492H84.8748V9.30811H85.5219V11.5407Z" fill="#004C98"/>
<path d="M89.3869 11.537H88.4994L88.3445 12.0491H87.6511L88.6357 9.30801H89.2436L90.2362 12.0491H89.5429L89.3869 11.537ZM89.6319 8.56934C89.634 8.64911 89.6182 8.72831 89.5857 8.80091C89.5533 8.87351 89.505 8.93758 89.4446 8.98823C89.299 9.09189 89.1258 9.14746 88.9483 9.14746C88.7708 9.14746 88.5976 9.09189 88.452 8.98823C88.3918 8.93746 88.3438 8.87334 88.3115 8.80075C88.2793 8.72816 88.2637 8.64901 88.2659 8.56934H88.6889C88.6869 8.60213 88.692 8.63496 88.7038 8.66554C88.7156 8.69611 88.7337 8.72369 88.7571 8.74634C88.8112 8.79068 88.8796 8.81296 88.9489 8.80887C89.017 8.81332 89.0842 8.79141 89.1373 8.74751C89.1606 8.72473 89.1788 8.69693 89.1904 8.66612C89.202 8.6353 89.2067 8.60225 89.2043 8.56934H89.6319ZM88.6542 11.0273H89.232L88.942 10.0762L88.6542 11.0273Z" fill="#004C98"/>
<path d="M93.1873 12.0489V9.3078H94.0517C94.2755 9.30396 94.4963 9.36054 94.6919 9.47182C94.8812 9.58225 95.0353 9.74615 95.1356 9.94382C95.2436 10.1507 95.2988 10.382 95.2963 10.6164V10.738C95.2999 10.9727 95.2462 11.2046 95.1403 11.4129C95.0411 11.6095 94.8892 11.7732 94.7023 11.8849C94.5104 11.9987 94.2921 12.0578 94.0702 12.056L93.1873 12.0489ZM93.8367 9.81756V11.5404H94.0621C94.144 11.5448 94.2258 11.5288 94.3004 11.4936C94.3749 11.4585 94.4399 11.4052 94.4896 11.3386C94.6008 11.1593 94.653 10.9485 94.6387 10.7368V10.62C94.6531 10.4094 94.6008 10.1997 94.4896 10.0217C94.4386 9.95438 94.3722 9.90081 94.2963 9.86565C94.2204 9.83048 94.1372 9.81479 94.054 9.81992L93.8367 9.81756Z" fill="#004C98"/>
<path d="M98.1991 10.8858H97.1879V11.5407H98.3898V12.0492H96.5408V9.30811H98.3898V9.81786H97.1879V10.3961H98.2049L98.1991 10.8858Z" fill="#004C98"/>
<path d="M102.924 11.5371H102.041L101.886 12.0492H101.193L102.177 9.30811H102.785L103.775 12.0492H103.081L102.924 11.5371ZM102.192 11.0274H102.77L102.48 10.0763L102.192 11.0274Z" fill="#004C98"/>
<path d="M106.263 11.321C106.265 11.2778 106.257 11.2348 106.24 11.1954C106.222 11.156 106.196 11.1214 106.163 11.0945C106.056 11.0207 105.939 10.9642 105.816 10.9269C105.671 10.8808 105.53 10.8248 105.393 10.7594C105.045 10.5847 104.872 10.3448 104.872 10.0396C104.869 9.89477 104.915 9.7534 105.001 9.63837C105.097 9.51521 105.225 9.42135 105.37 9.36697C105.54 9.30006 105.721 9.26721 105.904 9.27021C106.082 9.26732 106.259 9.30312 106.423 9.37523C106.567 9.4385 106.691 9.54295 106.78 9.67613C106.865 9.80803 106.909 9.96303 106.907 10.121H106.262C106.265 10.0729 106.257 10.0247 106.24 9.97985C106.222 9.93502 106.196 9.89459 106.161 9.86139C106.085 9.79676 105.988 9.7639 105.889 9.76935C105.792 9.76366 105.696 9.79106 105.616 9.84723C105.584 9.86923 105.559 9.89885 105.541 9.93344C105.524 9.96803 105.515 10.0065 105.515 10.0455C105.517 10.0841 105.528 10.1217 105.547 10.155C105.566 10.1884 105.593 10.2164 105.625 10.2366C105.745 10.3162 105.876 10.376 106.015 10.4136C106.175 10.4627 106.33 10.5287 106.477 10.6107C106.767 10.7814 106.911 11.0174 106.911 11.3187C106.916 11.4279 106.894 11.5366 106.847 11.6351C106.801 11.7337 106.732 11.8191 106.646 11.8839C106.432 12.032 106.176 12.1042 105.918 12.0892C105.715 12.093 105.513 12.0528 105.327 11.9712C105.166 11.9033 105.028 11.7878 104.931 11.6396C104.841 11.4969 104.795 11.3302 104.798 11.1606H105.446C105.442 11.2199 105.45 11.2796 105.469 11.3356C105.489 11.3915 105.521 11.4425 105.562 11.4851C105.665 11.5645 105.794 11.6019 105.923 11.5901C106.013 11.5953 106.102 11.5705 106.176 11.5193C106.205 11.4957 106.228 11.4654 106.243 11.4309C106.258 11.3964 106.265 11.3588 106.263 11.321Z" fill="#004C98"/>
<path d="M108.837 12.0492H108.192V9.30811H108.837V12.0492Z" fill="#004C98"/>
<path d="M112.391 11.7103C112.27 11.8365 112.119 11.9301 111.954 11.9829C111.751 12.0535 111.538 12.0886 111.324 12.0868C111.168 12.0951 111.013 12.0702 110.867 12.0135C110.721 11.9568 110.588 11.8696 110.477 11.7575C110.255 11.5066 110.134 11.179 110.139 10.8407V10.6047C110.133 10.361 110.181 10.1191 110.278 9.89669C110.364 9.70478 110.504 9.54304 110.679 9.43177C110.863 9.32007 111.073 9.26323 111.286 9.26775C111.565 9.25091 111.84 9.33443 112.065 9.50375C112.162 9.59249 112.24 9.7001 112.296 9.82026C112.352 9.94043 112.383 10.0707 112.389 10.2035H111.766C111.757 10.0802 111.706 9.96397 111.621 9.87545C111.532 9.80487 111.421 9.77003 111.308 9.77751C111.233 9.77538 111.158 9.79383 111.092 9.83095C111.025 9.86807 110.97 9.92253 110.931 9.98873C110.833 10.1727 110.786 10.3811 110.797 10.5905V10.7569C110.785 10.9716 110.834 11.1853 110.939 11.3717C110.988 11.4413 111.053 11.4969 111.129 11.5331C111.205 11.5693 111.288 11.5848 111.372 11.5782C111.507 11.5883 111.641 11.5462 111.747 11.4602V11.0377H111.298V10.5846H112.394L112.391 11.7103Z" fill="#004C98"/>
<path d="M115.779 9.30811V11.1017C115.784 11.2864 115.741 11.4691 115.652 11.6303C115.568 11.7793 115.44 11.898 115.287 11.9702C115.111 12.0523 114.919 12.0927 114.725 12.0882C114.445 12.1039 114.169 12.0113 113.952 11.8286C113.858 11.7384 113.783 11.6285 113.733 11.5064C113.684 11.3843 113.66 11.2527 113.665 11.1206V9.30811H114.315V11.1288C114.323 11.4286 114.46 11.5784 114.725 11.5784C114.781 11.5817 114.837 11.5729 114.89 11.5526C114.942 11.5323 114.99 11.5008 115.029 11.4604C115.107 11.3553 115.144 11.2246 115.132 11.0934V9.30811H115.779Z" fill="#004C98"/>
<path d="M118.087 11.0794H117.741V12.0494H117.094V9.30825H118.15C118.415 9.29223 118.678 9.36833 118.896 9.52419C118.985 9.59692 119.056 9.6903 119.103 9.79659C119.15 9.90288 119.171 10.019 119.166 10.1354C119.17 10.3006 119.13 10.464 119.05 10.6074C118.963 10.7421 118.84 10.8479 118.695 10.9119L119.256 12.0187V12.047H118.562L118.087 11.0794ZM117.741 10.5708H118.15C118.2 10.577 118.25 10.5716 118.298 10.555C118.345 10.5384 118.389 10.511 118.424 10.4749C118.46 10.4388 118.487 10.3949 118.504 10.3466C118.521 10.2982 118.526 10.2466 118.521 10.1956C118.524 10.1451 118.517 10.0945 118.5 10.0467C118.484 9.99894 118.459 9.9549 118.426 9.91713C118.389 9.88171 118.346 9.8545 118.298 9.83723C118.251 9.81996 118.2 9.81301 118.15 9.81683H117.741V10.5708Z" fill="#004C98"/>
<path d="M121.983 11.537H121.097L120.942 12.0491H120.249L121.233 9.30801H121.842L122.834 12.0491H122.141L121.983 11.537ZM122.228 8.56934C122.231 8.64905 122.215 8.72828 122.183 8.80091C122.151 8.87355 122.103 8.93764 122.042 8.98823C121.897 9.09195 121.724 9.14757 121.547 9.14757C121.369 9.14757 121.196 9.09195 121.051 8.98823C120.99 8.93764 120.942 8.87355 120.91 8.80091C120.878 8.72828 120.862 8.64905 120.865 8.56934H121.287C121.285 8.60222 121.29 8.63511 121.302 8.66569C121.314 8.69627 121.332 8.7238 121.356 8.74634C121.41 8.7905 121.478 8.81278 121.547 8.80887C121.615 8.81338 121.683 8.79149 121.736 8.74751C121.759 8.72458 121.777 8.69676 121.789 8.66598C121.8 8.63521 121.805 8.60223 121.803 8.56934H122.228ZM121.252 11.0273H121.83L121.541 10.0762L121.252 11.0273Z" fill="#004C98"/>
<path d="M124.935 11.0794H124.589V12.0493H123.941V9.3082H124.998C125.263 9.29238 125.526 9.36846 125.744 9.52414C125.833 9.59688 125.904 9.69026 125.951 9.79655C125.998 9.90284 126.019 10.019 126.013 10.1354C126.019 10.3007 125.979 10.4642 125.898 10.6074C125.812 10.7424 125.688 10.8483 125.543 10.9118L126.104 12.0187V12.047H125.41L124.935 11.0794ZM124.589 10.5708H124.998C125.048 10.5746 125.099 10.5677 125.146 10.5507C125.194 10.5336 125.238 10.5067 125.275 10.4717C125.34 10.3957 125.373 10.2964 125.367 10.1956C125.37 10.1441 125.363 10.0925 125.346 10.0439C125.329 9.99528 125.303 9.95057 125.269 9.91236C125.233 9.87695 125.189 9.84974 125.141 9.83247C125.094 9.8152 125.043 9.80825 124.993 9.81206H124.584L124.589 10.5708Z" fill="#004C98"/>
<path d="M127.997 12.0492H127.349V9.30811H127.995L127.997 12.0492Z" fill="#004C98"/>
<path fill-rule="evenodd" clip-rule="evenodd" d="M18.2227 1.55031H22.5239V6.61131H26.5674V1.55031H29.5385L30.8698 0.000976562H19.5528L18.2227 1.55031Z" fill="#004C98"/>
<path fill-rule="evenodd" clip-rule="evenodd" d="M115.353 1.55031H119.655V6.61131H123.698V1.55031H126.67L128 0.000976562H116.683L115.353 1.55031Z" fill="#004C98"/>
<path fill-rule="evenodd" clip-rule="evenodd" d="M48.3944 0C48.0665 0.000154862 47.7419 0.0662737 47.439 0.194579C47.1361 0.322885 46.861 0.510863 46.6293 0.747774C46.3976 0.984686 46.2139 1.26589 46.0886 1.57532C45.9634 1.88475 45.8991 2.21634 45.8994 2.55115V6.60797H49.9441V2.54525C49.9441 2.28143 50.0467 2.02841 50.2294 1.84186C50.4121 1.65532 50.6599 1.55051 50.9183 1.55051H55.0288V3.51048H51.2742L49.9476 5.061H55.0323V6.60797H59.077V0H48.3944Z" fill="#004C98"/>
<path fill-rule="evenodd" clip-rule="evenodd" d="M69.0746 3.99172L64.1701 0.000976562H60.1162V6.61131H64.1701V2.60168L69.0746 6.61131H73.1539V0.000976562H69.0746V3.99172Z" fill="#004C98"/>
<path d="M114.426 0.000976562H110.383V6.61131H114.426V0.000976562Z" fill="#004C98"/>
<path fill-rule="evenodd" clip-rule="evenodd" d="M104.133 0.000976562H100.09V6.61131H108.123L109.453 5.06905H104.133V0.000976562Z" fill="#004C98"/>
<path fill-rule="evenodd" clip-rule="evenodd" d="M96.8838 2.65039L95.7606 3.96136H91.7043L92.8276 2.65039H96.8838Z" fill="#004C98"/>
<path fill-rule="evenodd" clip-rule="evenodd" d="M93.3003 5.061H99.1581L97.828 6.60797H90.7787C89.9205 6.60797 89.0975 6.25987 88.4907 5.64025C87.8839 5.02064 87.543 4.18026 87.543 3.30398C87.543 2.42771 87.8839 1.58733 88.4907 0.967715C89.0975 0.348097 89.9205 0 90.7787 0L99.1604 0L97.828 1.55051H93.3003C92.8446 1.55051 92.4076 1.73518 92.0852 2.06395C91.7628 2.39272 91.5813 2.83872 91.5807 3.30398C91.5806 3.53466 91.6249 3.76311 91.7113 3.97627C91.7976 4.18944 91.9243 4.38314 92.0839 4.54631C92.2436 4.70948 92.4333 4.83892 92.642 4.92723C92.8507 5.01554 93.0744 5.061 93.3003 5.061Z" fill="#004C98"/>
<path fill-rule="evenodd" clip-rule="evenodd" d="M0 0.915676V0L7.77039 1.96941L15.5408 0V4.58074L7.77039 6.55133L0 4.58074V3.66506L7.77039 5.63565V4.71998L0 2.74939V1.83253L7.77039 3.80312V2.88745L0 0.915676Z" fill="#004C98"/>
<path fill-rule="evenodd" clip-rule="evenodd" d="M15.5408 6.41441V5.49756L7.77039 7.46815L0 5.49756V10.0783L7.77039 12.0489L15.5408 10.0783V9.1638L7.77039 11.1344V10.2175L15.5408 8.24695V7.33127L7.77039 9.30186V8.385L15.5408 6.41441Z" fill="#004C98"/>
</g>
<defs>
<clipPath id="clip0_587_3318">
<rect width="128" height="13" fill="white"/>
</clipPath>
</defs>
</svg>
